<svg width="26" height="25" viewBox="0 0 26 25" fill="white" xmlns="http://www.w3.org/2000/svg">
<path d="M25.1625 10.8072L23.0005 8.83724V2.30504C23.0005 1.88941 22.6636 1.55241 22.2479 1.55241H17.0437C16.6281 1.55241 16.2911 1.88936 16.2911 2.30504V2.72361L13.6801 0.344472C13.1761 -0.114841 12.416 -0.114791 11.9122 0.344422L0.429764 10.8072C0.0260846 11.1751 -0.107326 11.742 0.0899155 12.2513C0.287207 12.7606 0.767563 13.0896 1.31375 13.0896H3.14765V23.5725C3.14765 23.9882 3.4846 24.3252 3.90028 24.3252H10.194C10.6097 24.3252 10.9467 23.9882 10.9467 23.5725V17.2076H14.6456V23.5726C14.6456 23.9882 14.9826 24.3252 15.3982 24.3252H21.6918C22.1074 24.3252 22.4444 23.9883 22.4443 23.5726V13.0897H24.2786C24.8248 13.0897 25.3052 12.7606 25.5025 12.2513C25.6997 11.742 25.5663 11.1751 25.1625 10.8072ZM21.6918 11.5844C21.2761 11.5844 20.9391 11.9214 20.9391 12.337V22.82H16.1509V16.455C16.1509 16.0394 15.8139 15.7024 15.3983 15.7024H10.194C9.77842 15.7024 9.44142 16.0393 9.44142 16.455V22.82H4.65285V12.337C4.65285 11.9214 4.3159 11.5844 3.90023 11.5844H1.8117L12.7962 1.5754L16.5369 4.98394C16.7572 5.18468 17.0753 5.23641 17.3479 5.1161C17.6205 4.99563 17.7964 4.72561 17.7964 4.4276V3.05766H21.4954V9.16964C21.4954 9.38142 21.5845 9.58331 21.7411 9.72597L23.7806 11.5844H21.6918Z" />
</svg>
